<svg xmlns="http://www.w3.org/2000/svg" viewBox="0 0 64 64" role="img" aria-label="Media Tracks icon">
  <defs>
    <linearGradient id="body" x1="0" y1="0" x2="1" y2="1">
      <stop offset="0%" stop-color="#37b8ff"/>
      <stop offset="100%" stop-color="#1160ff"/>
    </linearGradient>
    <linearGradient id="tab" x1="0" y1="0" x2="0" y2="1">
      <stop offset="0%" stop-color="#ffd861"/>
      <stop offset="100%" stop-color="#ffb133"/>
    </linearGradient>
  </defs>
  <path d="M8 24h48a8 8 0 0 1 8 8v16a8 8 0 0 1-8 8H8a8 8 0 0 1-8-8V32a8 8 0 0 1 8-8z" fill="url(#body)"/>
  <path d="M8 15h17l5 6h26a8 8 0 0 1 8 8v2H0v-8a8 8 0 0 1 8-8z" fill="url(#tab)"/>
  <path d="M36 18v22a7 7 0 1 1-4-6.3V18h4zm12 0v17a7 7 0 1 1-4-6.3V18h4z" fill="#073f93"/>
</svg>
