<svg xmlns="http://www.w3.org/2000/svg" viewBox="0 0 780 130" role="img" aria-label="Media Tracks logo">
  <defs>
    <linearGradient id="body" x1="0" y1="0" x2="1" y2="1">
      <stop offset="0%" stop-color="#37b8ff"/>
      <stop offset="100%" stop-color="#1160ff"/>
    </linearGradient>
    <linearGradient id="tab" x1="0" y1="0" x2="0" y2="1">
      <stop offset="0%" stop-color="#ffd861"/>
      <stop offset="100%" stop-color="#ffb133"/>
    </linearGradient>
    <linearGradient id="tracks" x1="0" y1="0" x2="1" y2="0">
      <stop offset="0%" stop-color="#56c6ff"/>
      <stop offset="100%" stop-color="#1199ff"/>
    </linearGradient>
  </defs>
  <g transform="translate(0,8)">
    <path d="M8 32h120a12 12 0 0 1 12 12v40a12 12 0 0 1-12 12H8A12 12 0 0 1-4 84V44A12 12 0 0 1 8 32z" fill="url(#body)"/>
    <path d="M8 10h44l12 14h64a12 12 0 0 1 12 12v5H-4V22A12 12 0 0 1 8 10z" fill="url(#tab)"/>
    <path d="M82 18v50a14 14 0 1 1-8-12.6V18h8zm27 0v39a14 14 0 1 1-8-12.6V18h8z" fill="#073f93"/>
  </g>
  <text x="165" y="84" font-size="76" font-weight="700" font-family="'Segoe UI', Inter, Arial, sans-serif" fill="#f3f6fb">media-</text>
  <text x="410" y="84" font-size="76" font-weight="700" font-family="'Segoe UI', Inter, Arial, sans-serif" fill="url(#tracks)">tracks</text>
</svg>
